<svg xmlns="http://www.w3.org/2000/svg" viewBox="0 0 118.73 31.8"><defs><style>.cls-1{fill:none;stroke:#020202;stroke-width:3.42px;}</style></defs><title>evisa</title><g id="Layer_2" data-name="Layer 2"><g id="Calque_1" data-name="Calque 1"><path d="M106.43,24.6c-2.7,0-4.4-1.7-4.4-5.4s1.8-5.8,4.9-5.8a5.94,5.94,0,0,1,4.1,1.5v5.4a4.23,4.23,0,0,1-4.6,4.3m9.8-.3V9.4h-4.4l-.3,1a10.39,10.39,0,0,0-5.2-1.4c-5.6,0-9.5,3.8-9.5,10.2s3.4,9.8,8.5,9.8a7.65,7.65,0,0,0,6.3-2.7,4.18,4.18,0,0,0,4.3,2.6,8.66,8.66,0,0,0,2.7-.3l.1-4a11.13,11.13,0,0,1-2.5-.3M85.33,9c5.4,0,8.6,1.9,8.7,5.4L89,15c-.3-1.5-1.3-2.2-3.5-2.2s-3.1.7-3.1,1.9c0,4,12,.4,12,8.3,0,3.5-2.5,5.9-8.8,5.9-3.7,0-6.4-.7-8.4-2l.7-4.2a15.66,15.66,0,0,0,7.5,2.1c2.7,0,3.6-.6,3.6-1.8,0-3.5-12-.5-12-8,.2-3.6,2.7-6,8.3-6M73,24.3a14.36,14.36,0,0,0,2.4.2l-.1,4a21.65,21.65,0,0,1-3.6.3c-2.9,0-4-.8-4-3.5V9.4H73V24.3ZM70.33,6.6a3.23,3.23,0,0,1-3.4-3.3A3.23,3.23,0,0,1,70.33,0a3.1,3.1,0,0,1,3.3,3.3,3.1,3.1,0,0,1-3.3,3.3M59.93,9.1l-5.1,13.3L50.93,12c-.8-2.2-1.9-3-4.1-3a6.33,6.33,0,0,0-2.5.5l-.1,4a11,11,0,0,1,2.2.2l6.2,14.7h4.5l8-18.9Z"/><path class="cls-1" d="M1.63,31.3S5,20.1,15.33,24.4"/><path d="M32.73,10.1c0,3.7-4.5,7.1-9.6,7.3,1.3-4.4,4.6-9.1,8-9.1,1.2,0,1.6.7,1.6,1.8M22.43,21.3c0-.5.1-1.2.1-1.8,8-.3,15.3-4.3,15.3-9.3,0-2.2-1.4-4.3-7.3-4.3-13.6,0-17.9,10.7-17.9,15.8s4.1,7.1,10.3,7.1a23.84,23.84,0,0,0,18.3-8.2H39c-3.3,2.5-6.5,4.5-11.8,4.5-3.2-.1-4.8-.8-4.8-3.8"/><path d="M43.63,28.2a2.7,2.7,0,1,0-2.7-2.7,2.69,2.69,0,0,0,2.7,2.7"/></g></g></svg>