<svg height="256" viewBox="0 0 256 256" width="256" xmlns="http://www.w3.org/2000/svg"><path d="m188.3848 248.9414h-120.7696a60.6258 60.6258 0 0 1 -60.5581-60.5566v-120.7696a60.6258 60.6258 0 0 1 60.5581-60.5566h120.77a60.6258 60.6258 0 0 1 60.5581 60.5566v120.77a60.6258 60.6258 0 0 1 -60.5585 60.5562zm-120.7696-231.8414a50.5731 50.5731 0 0 0 -50.5161 50.5152v120.77a50.5731 50.5731 0 0 0 50.5161 50.5148h120.77a50.5731 50.5731 0 0 0 50.5161-50.5156v-120.7692a50.5731 50.5731 0 0 0 -50.5165-50.5152z"/><path d="m128 189.8457a61.8457 61.8457 0 1 1 61.8457-61.8467 61.9163 61.9163 0 0 1 -61.8457 61.8467zm0-113.65a51.8047 51.8047 0 1 0 51.8037 51.8037 51.8623 51.8623 0 0 0 -51.8037-51.8041z"/><path d="m192.0879 76.0156a18.0044 18.0044 0 1 1 18.0054-18.0039 18.0247 18.0247 0 0 1 -18.0054 18.0039zm0-25.9678a7.9634 7.9634 0 1 0 7.9634 7.9639 7.9729 7.9729 0 0 0 -7.9634-7.9638z"/></svg>